# xmcd
#
# Track frame offsets:
#	150
#	10820
#	23330
#	37890
#	54855
#	68697
#	80040
#	92347
#	106947
#	120400
#	132307
#	149332
#	162032
#	171635
#
# Disc length: 2495 seconds
#
# Revision: 0
# Processed by: cddbd v1.4PL0 Copyright (c) Steve Scherf et al.
# Submitted via: EasyCDDAExtractor 4.6.9.1
#
DISCID=a409bd0e
DTITLE=U.S. Navy Country Current - Navy Blue Bluegrass
DYEAR=2001
DGENRE=Bluegrass
TTITLE0=Ain't Nobody Gonna Miss Me When I'm Gone
TTITLE1=A Walk In The Irish Rain
TTITLE2=Last Thing On My Mind
TTITLE3=Douglas The Dog
TTITLE4=The Old Home Place
TTITLE5=Little Whitewashed Chimney
TTITLE6=Big Spike Hammer
TTITLE7=Good Woman's Love
TTITLE8=I've Waited As Long As I Can
TTITLE9=Heart Of Caroline
TTITLE10=The Prisoner's Song
TTITLE11=I'm Gonna Be (500 Miles)
TTITLE12=Sugarland Run
TTITLE13=Every Time It Snows
EXTD=
EXTT0=
EXTT1=
EXTT2=
EXTT3=
EXTT4=
EXTT5=
EXTT6=
EXTT7=
EXTT8=
EXTT9=
EXTT10=
EXTT11=
EXTT12=
EXTT13=
PLAYORDER=
